<svg xmlns="http://www.w3.org/2000/svg" version="1.1" xmlns:xlink="http://www.w3.org/1999/xlink" xmlns:svgjs="http://svgjs.dev/svgjs" width="1500" height="428" viewBox="0 0 1500 428"><g transform="matrix(1,0,0,1,-0.9090909090909918,-0.6933857613712746)"><svg viewBox="0 0 396 113" data-background-color="#000000" preserveAspectRatio="xMidYMid meet" height="428" width="1500" xmlns="http://www.w3.org/2000/svg" xmlns:xlink="http://www.w3.org/1999/xlink"><g id="tight-bounds" transform="matrix(1,0,0,1,0.2400000000000091,0.18306680148353394)"><svg viewBox="0 0 395.52 112.63386639703295" height="112.63386639703295" width="395.52"><g><svg viewBox="0 0 708.5053913736813 201.76401090604966" height="112.63386639703295" width="395.52"><g><rect width="12.143534107222601" height="201.76401090604966" x="269.0525009648289" y="0" fill="#b34b19" opacity="1" stroke-width="0" stroke="transparent" fill-opacity="1" class="rect-qz-0" data-fill-palette-color="primary" rx="1%" id="qz-0" data-palette-color="#b34b19"></rect></g><g transform="matrix(1,0,0,1,312.9853913736813,0.501900524641897)"><svg viewBox="0 0 395.52 200.76020985676587" height="200.76020985676587" width="395.52"><g id="textblocktransform"><svg viewBox="0 0 395.52 200.76020985676587" height="200.76020985676587" width="395.52" id="textblock"><g><svg viewBox="0 0 395.52 134.65729808040564" height="134.65729808040564" width="395.52"><g transform="matrix(1,0,0,1,0,0)"><svg width="395.52" viewBox="1.6 -37 138.04 47" height="134.65729808040564" data-palette-color="#b34b19"><path d="M10.95 0.6L10.95 0.6Q7.75 0.6 5.48-0.7 3.2-2 1.6-4.3L1.6-4.3 4.25-6.5Q5.6-4.6 7.18-3.6 8.75-2.6 10.95-2.6L10.95-2.6Q13.2-2.6 14.53-3.73 15.85-4.85 15.85-6.95L15.85-6.95Q15.85-8.65 15-9.7 14.15-10.75 11.85-11.15L11.85-11.15 9.9-11.5Q6.15-12.2 4.33-13.85 2.5-15.5 2.5-18.85L2.5-18.85Q2.5-20.8 3.1-22.23 3.7-23.65 4.8-24.58 5.9-25.5 7.43-25.93 8.95-26.35 10.75-26.35L10.75-26.35Q13.65-26.35 15.63-25.33 17.6-24.3 19.05-22.35L19.05-22.35 16.6-20.1Q15.75-21.3 14.35-22.23 12.95-23.15 10.75-23.15L10.75-23.15Q6.2-23.15 6.2-19L6.2-19Q6.2-17.1 7.18-16.23 8.15-15.35 10.35-14.95L10.35-14.95 12.3-14.6Q16.25-13.9 17.9-12.15 19.55-10.4 19.55-7.4L19.55-7.4Q19.55-3.65 17.38-1.53 15.2 0.6 10.95 0.6ZM34.55 0.6L34.55 0.6Q32.3 0.6 30.35-0.15 28.4-0.9 27-2.55 25.6-4.2 24.8-6.75 24-9.3 24-12.9L24-12.9Q24-16.5 24.8-19.05 25.6-21.6 27-23.25 28.4-24.9 30.35-25.65 32.3-26.4 34.55-26.4L34.55-26.4Q36.8-26.4 38.67-25.65 40.55-24.9 41.85-23.25 43.15-21.6 43.87-19.05 44.6-16.5 44.6-12.9L44.6-12.9 44.6-11.95 28.05-11.95 28.05-10.3Q28.05-6.5 29.77-4.63 31.5-2.75 34.55-2.75L34.55-2.75Q37.15-2.75 38.8-3.88 40.45-5 41.4-7.25L41.4-7.25 44-5.35Q42.8-2.7 40.47-1.05 38.15 0.6 34.55 0.6ZM34.55-23.2L34.55-23.2Q31.45-23.2 29.75-21.25 28.05-19.3 28.05-15.5L28.05-15.5 28.05-14.85 40.55-14.85 40.55-15.5Q40.55-23.2 34.55-23.2ZM50.5 0L50.5-37 54.3-37 54.3-18 54-12.95 54.4-12.95 58-17.8 64.45-25.8 69.05-25.8 60.5-15.55 69.8 0 65.25 0 57.7-13.3 54.3-9.3 54.3 0 50.5 0ZM82.69 0.6L82.69 0.6Q80.44 0.6 78.49-0.15 76.54-0.9 75.14-2.55 73.74-4.2 72.94-6.75 72.14-9.3 72.14-12.9L72.14-12.9Q72.14-16.5 72.94-19.05 73.74-21.6 75.14-23.25 76.54-24.9 78.49-25.65 80.44-26.4 82.69-26.4L82.69-26.4Q84.94-26.4 86.89-25.65 88.84-24.9 90.24-23.25 91.64-21.6 92.44-19.05 93.24-16.5 93.24-12.9L93.24-12.9Q93.24-9.3 92.44-6.75 91.64-4.2 90.24-2.55 88.84-0.9 86.89-0.15 84.94 0.6 82.69 0.6ZM82.69-2.8L82.69-2.8Q85.79-2.8 87.47-4.65 89.14-6.5 89.14-10.3L89.14-10.3 89.14-15.5Q89.14-19.3 87.47-21.15 85.79-23 82.69-23L82.69-23Q79.59-23 77.92-21.15 76.24-19.3 76.24-15.5L76.24-15.5 76.24-10.3Q76.24-6.5 77.92-4.65 79.59-2.8 82.69-2.8ZM108.89-12.8L112.84-25.8 116.54-25.8 106.34 6.6Q106.04 7.6 105.69 8.28 105.34 8.95 104.82 9.33 104.29 9.7 103.57 9.85 102.84 10 101.74 10L101.74 10 98.94 10 98.94 6.65 102.89 6.65 104.39 1.4 95.84-25.8 99.64-25.8 103.59-12.8 105.99-3.35 106.49-3.35 108.89-12.8ZM139.64 0L136.94 0Q133.24 0 133.24-3.7L133.24-3.7 133.24-4.2 132.74-4.2Q132.09-1.85 130.36-0.63 128.64 0.6 126.24 0.6L126.24 0.6Q122.49 0.6 120.64-1.3 118.79-3.2 118.79-6.9L118.79-6.9Q118.79-10.5 121.16-12.6 123.54-14.7 128.59-14.7L128.59-14.7 133.24-14.7 133.24-17.55Q133.24-20.4 131.96-21.75 130.69-23.1 127.94-23.1L127.94-23.1Q125.69-23.1 124.31-22.13 122.94-21.15 121.94-19.3L121.94-19.3 119.69-21.4Q120.69-23.5 122.89-24.93 125.09-26.35 128.09-26.35L128.09-26.35Q132.49-26.35 134.76-24.23 137.04-22.1 137.04-17.95L137.04-17.95 137.04-3.35 139.64-3.35 139.64 0ZM127.19-2.7L127.19-2.7Q128.49-2.7 129.61-3.15 130.74-3.6 131.54-4.33 132.34-5.05 132.79-5.98 133.24-6.9 133.24-7.9L133.24-7.9 133.24-11.8 128.49-11.8Q125.49-11.8 124.11-10.8 122.74-9.8 122.74-7.9L122.74-7.9 122.74-6.5Q122.74-4.55 123.94-3.63 125.14-2.7 127.19-2.7Z" opacity="1" transform="matrix(1,0,0,1,0,0)" fill="#b34b19" class="wordmark-text-0" data-fill-palette-color="primary" id="text-0"></path></svg></g></svg></g><g transform="matrix(1,0,0,1,297.82656,166.4466543820355)"><svg viewBox="0 0 97.69344 34.313555474730386" height="34.313555474730386" width="97.69344"><g transform="matrix(1,0,0,1,0,0)"><svg width="97.69344" viewBox="0.22 -37.5 115.44 40.55" height="34.313555474730386" data-palette-color="#b34b19"><path d="M5.03-32.81L9.55-32.81 9.55-26.42 14.48-26.42 14.48-22.92 9.55-22.92 9.55-6.54Q9.55-4.96 10.21-4.16 10.86-3.37 12.45-3.37L12.45-3.37Q13.23-3.37 14.6-3.66L14.6-3.66 14.6 0Q12.82 0.49 11.13 0.49L11.13 0.49Q8.11 0.49 6.57-1.34 5.03-3.17 5.03-6.54L5.03-6.54 5.03-22.92 0.22-22.92 0.22-26.42 5.03-26.42 5.03-32.81ZM30.71 0.49L30.71 0.49Q25.34 0.49 21.97-3.04 18.6-6.57 18.6-12.48L18.6-12.48 18.6-13.31Q18.6-17.24 20.1-20.32 21.6-23.41 24.3-25.16 27-26.9 30.15-26.9L30.15-26.9Q35.3-26.9 38.16-23.51 41.01-20.12 41.01-13.79L41.01-13.79 41.01-11.91 23.12-11.91Q23.22-8.01 25.4-5.6 27.59-3.2 30.95-3.2L30.95-3.2Q33.35-3.2 35.01-4.17 36.67-5.15 37.91-6.76L37.91-6.76 40.67-4.61Q37.35 0.49 30.71 0.49ZM30.15-23.19L30.15-23.19Q27.41-23.19 25.56-21.2 23.7-19.21 23.26-15.63L23.26-15.63 36.5-15.63 36.5-15.97Q36.3-19.41 34.64-21.3 32.98-23.19 30.15-23.19ZM56.83-3.2L56.83-3.2Q59.25-3.2 61.05-4.66 62.86-6.13 63.06-8.33L63.06-8.33 67.33-8.33Q67.21-6.05 65.77-4 64.33-1.95 61.92-0.73 59.52 0.49 56.83 0.49L56.83 0.49Q51.44 0.49 48.25-3.11 45.06-6.71 45.06-12.96L45.06-12.96 45.06-13.72Q45.06-17.58 46.48-20.58 47.9-23.58 50.54-25.24 53.19-26.9 56.81-26.9L56.81-26.9Q61.25-26.9 64.19-24.24 67.13-21.58 67.33-17.33L67.33-17.33 63.06-17.33Q62.86-19.9 61.12-21.55 59.37-23.19 56.81-23.19L56.81-23.19Q53.36-23.19 51.47-20.72 49.58-18.24 49.58-13.55L49.58-13.55 49.58-12.7Q49.58-8.13 51.46-5.66 53.34-3.2 56.83-3.2ZM76.92-37.5L76.92-23.22Q79.92-26.9 84.73-26.9L84.73-26.9Q93.11-26.9 93.18-17.46L93.18-17.46 93.18 0 88.66 0 88.66-17.48Q88.64-20.34 87.36-21.7 86.08-23.07 83.37-23.07L83.37-23.07Q81.17-23.07 79.51-21.9 77.85-20.73 76.92-18.82L76.92-18.82 76.92 0 72.4 0 72.4-37.5 76.92-37.5ZM115.66-35.55L100.84 3.05 96.96 3.05 111.81-35.55 115.66-35.55Z" opacity="1" transform="matrix(1,0,0,1,0,0)" fill="#b34b19" class="slogan-text-1" data-fill-palette-color="secondary" id="text-1"></path></svg></g></svg></g></svg></g></svg></g><g transform="matrix(1,0,0,1,0,0.501900524641897)"><svg viewBox="0 0 237.26314466319906 200.76020985676587" height="200.76020985676587" width="237.26314466319906"><g><svg xmlns="http://www.w3.org/2000/svg" xmlns:xlink="http://www.w3.org/1999/xlink" version="1.1" x="0" y="0" viewBox="0 13.422 100 84.615" enable-background="new 0 0 100 100" xml:space="preserve" height="200.76020985676587" width="237.26314466319906" class="icon-icon-0" data-fill-palette-color="accent" id="icon-0"><g fill="#b34b19" data-fill-palette-color="accent"><path d="M0 13.422v84.615h100V13.422H0zM92.308 90.346H7.692V28.807h84.615V90.346z" fill="#b34b19" data-fill-palette-color="accent"></path><rect x="42.002" y="66.065" width="26.488" height="7.775" fill="#b34b19" data-fill-palette-color="accent"></rect><polygon points="15.521,66.064 41.988,55.549 41.988,55.527 42.002,55.533 42.002,47.181 41.988,47.187 41.988,47.165    15.521,36.65 15.515,45.014 31.487,51.357 15.515,57.701  " fill="#b34b19" data-fill-palette-color="accent"></polygon></g></svg></g></svg></g></svg></g><defs></defs></svg><rect width="395.52" height="112.63386639703295" fill="none" stroke="none" visibility="hidden"></rect></g></svg></g></svg>